<?xml version="1.0" encoding="utf-8"?>
<!-- Generator: Adobe Illustrator 15.0.0, SVG Export Plug-In . SVG Version: 6.00 Build 0)  -->
<!DOCTYPE svg PUBLIC "-//W3C//DTD SVG 1.0//EN" "http://www.w3.org/TR/2001/REC-SVG-20010904/DTD/svg10.dtd">
<svg version="1.0" id="Layer_1" xmlns="http://www.w3.org/2000/svg" xmlns:xlink="http://www.w3.org/1999/xlink" x="0px" y="0px"
	 width="26px" height="26px" viewBox="0 0 26 26" enable-background="new 0 0 26 26" xml:space="preserve">
<g>
	<path d="M6.701,7.82c0,0,0.513,0.491,0.513,0.776v12.568c0,0.832,0.736,1.507,1.645,1.507h9.362c0.908,0,1.644-0.675,1.644-1.507
		V8.597c0-0.286,0.515-0.776,0.515-0.776V6.298H6.701V7.82z M16.228,9.559h1.223v9.705h-1.223V9.559z M12.954,9.559h1.22v9.705
		h-1.22V9.559z M10.005,9.559h1.221v9.705h-1.221V9.559z"/>
	<path d="M20.976,5.04h-3.791c-0.189-0.971-1.116-1.711-2.23-1.711h-2.829c-1.114,0-2.042,0.74-2.231,1.711H6.103v0.93h14.873V5.04z
		 M11.165,5.04c0.156-0.344,0.528-0.586,0.96-0.586h2.829c0.433,0,0.804,0.243,0.961,0.586H11.165z"/>
</g>
</svg>
